<svg width="189" height="48" viewBox="0 0 189 48" fill="none" xmlns="http://www.w3.org/2000/svg">
<path d="M113.741 38.023C113.741 37.7121 113.642 37.457 113.437 37.2656C113.233 37.0663 112.982 36.9707 112.671 36.9707C111.411 36.9707 109.886 38.039 108.095 40.1756L108.573 39.4182C109.233 38.3818 109.567 37.6722 109.567 37.2975C109.567 37.0584 109.476 36.9388 109.294 36.9388C108.482 36.9388 107.905 37.162 107.564 37.6244C107.381 37.8636 107.146 38.2463 106.858 38.7725L105.606 40.9968L104.065 43.7473L103.913 44.0263H103.906C103.546 44.2778 103.165 44.4939 102.767 44.6721C102.396 44.8395 101.933 44.991 101.363 45.1265C100.794 45.2701 100.225 45.3338 99.6636 45.3338C99.102 45.3338 98.6922 45.1903 98.4569 44.9113C98.2141 44.6322 98.1003 44.2894 98.1003 43.8988C98.1003 43.3646 98.2141 42.8464 98.4418 42.3362C99.2614 42.5514 100.013 42.663 100.703 42.663C101.477 42.663 102.175 42.5275 102.805 42.2564C103.633 41.8977 104.338 41.236 104.741 40.4467C105.128 39.6893 105.37 38.4775 104.778 37.5766C104.346 36.9228 103.238 36.0538 100.635 37.5208C99.8988 37.9353 99.2158 38.4934 98.5556 39.2189V39.203C97.8954 39.8727 97.3566 40.646 96.9392 41.523C96.683 42.0597 96.4991 42.6312 96.3928 43.2211L96.0892 43.4842C95.9754 43.5878 95.7249 43.7632 95.3303 44.0263C94.9433 44.2894 94.5638 44.5047 94.192 44.6641C93.8201 44.8316 93.3572 44.983 92.7881 45.1186C92.2189 45.2621 91.6497 45.3259 91.0881 45.3259C90.5266 45.3259 90.1168 45.1823 89.8815 44.9033C89.6387 44.6243 89.5248 44.2815 89.5248 43.8908C89.5248 42.9182 89.9043 41.9774 90.6632 41.0765C91.0038 40.6718 91.3743 40.2959 91.7711 39.9524C92.1849 39.6025 92.621 39.2829 93.0764 38.9957C93.5545 38.6927 94.0023 38.5413 94.4197 38.5413C94.5031 38.5413 94.5487 38.5971 94.5487 38.7166C94.5487 38.8362 94.4348 39.0515 94.2072 39.3784C93.9795 39.7052 93.8657 39.9364 93.8657 40.064C93.8657 40.5503 94.1085 40.7975 94.5942 40.7975C95.0116 40.7975 95.4214 40.4945 95.8312 39.8966C96.2334 39.2907 96.4383 38.7804 96.4383 38.3499C96.4438 38.1501 96.4016 37.9519 96.3154 37.7737C96.2292 37.5954 96.1019 37.4426 95.945 37.3294C95.6187 37.0823 95.2544 36.9547 94.837 36.9547C93.9871 36.9547 93.1295 37.162 92.2568 37.5766C91.4109 37.9753 90.6358 38.5226 89.965 39.195C89.3064 39.866 88.7622 40.6507 88.3561 41.515C87.9387 42.3999 87.7263 43.2769 87.7263 44.1619C87.7263 45.0468 88.045 45.7564 88.6825 46.3065C89.2818 46.8413 90.0438 47.1327 90.8301 47.1276C91.6269 47.1276 92.5831 46.9044 93.7139 46.4659C94.2831 46.2507 94.8219 45.9955 95.3227 45.7085C95.7144 45.4831 96.0724 45.1984 96.3852 44.8635C96.5142 45.4295 96.8026 45.9079 97.2655 46.3065C97.8648 46.8413 98.6268 47.1327 99.4131 47.1276C100.21 47.1276 101.166 46.9044 102.297 46.4659L102.927 46.2028C102.942 46.2507 102.965 46.2905 102.995 46.3144C103.056 46.3623 103.215 46.442 103.488 46.5457C103.754 46.6493 103.974 46.7051 104.141 46.7051C104.308 46.7051 104.505 46.5377 104.741 46.1869L107.002 43.261L109.529 40.5424C110.523 39.5298 111.138 39.0116 111.388 38.9877L111.411 39.0116C110.85 39.7052 110.569 40.3271 110.569 40.8772C110.566 41.1093 110.635 41.3362 110.766 41.523C110.895 41.7063 111.085 41.802 111.32 41.802C111.555 41.802 111.775 41.6744 111.965 41.4193C112.322 40.9171 112.709 40.3032 113.134 39.5697C113.559 38.8362 113.764 38.318 113.764 38.0071L113.741 38.023ZM101.409 39.0914C102.555 38.4456 103.238 38.4057 103.359 38.5891C103.466 38.7485 103.435 39.195 103.223 39.6096C103.003 40.0401 102.6 40.4148 102.138 40.6141C101.424 40.925 100.551 40.9729 99.4814 40.7656C100.096 40.0241 100.749 39.4661 101.409 39.0914ZM131.499 43.2849C131.469 43.0537 131.378 42.9421 131.233 42.9421C131.142 42.9421 131.074 42.966 131.028 42.9979C130.983 43.0377 130.846 43.1972 130.611 43.4683L129.898 44.2655C129.655 44.5286 129.374 44.7678 129.063 44.999C128.752 45.2222 128.479 45.3418 128.251 45.3418C128.023 45.3418 127.909 45.1265 127.909 44.6801C127.907 44.5671 127.92 44.4544 127.947 44.3452C128.061 43.6995 128.312 42.9182 128.706 42.0093L129.776 39.761C130.095 39.1711 130.308 38.8283 130.406 38.7246C130.505 38.621 130.55 38.4615 130.55 38.2303C130.55 37.8158 130.262 37.6085 129.685 37.6085C129.435 37.6085 129.245 37.6483 129.124 37.7201C128.995 37.7918 128.843 37.9752 128.661 38.2622C128.592 38.047 128.425 37.8636 128.167 37.7201C127.909 37.5766 127.576 37.5048 127.166 37.5048C126.103 37.5048 124.942 38.023 123.682 39.0595C123.084 39.5525 122.53 40.1023 122.028 40.7018C121.527 41.3077 121.125 41.9694 120.814 42.7029C120.685 42.9979 120.594 43.3008 120.518 43.5958L119.888 44.0343C119.493 44.2974 119.114 44.5127 118.75 44.6721C118.378 44.8395 117.915 44.991 117.346 45.1265C116.777 45.2701 116.207 45.3338 115.646 45.3338C115.084 45.3338 114.674 45.1903 114.439 44.9113C114.196 44.6322 114.082 44.2894 114.082 43.8988C114.082 42.9261 114.462 41.9854 115.221 41.0845C115.561 40.6798 115.932 40.3039 116.329 39.9604C116.743 39.6105 117.179 39.2909 117.634 39.0037C118.112 38.7007 118.56 38.5492 118.977 38.5492C119.061 38.5492 119.106 38.605 119.106 38.7246C119.106 38.8442 118.992 39.0595 118.765 39.3863C118.537 39.7132 118.423 39.9444 118.423 40.072C118.423 40.5583 118.666 40.8054 119.152 40.8054C119.569 40.8054 119.979 40.5025 120.389 39.9046C120.799 39.2986 120.996 38.7884 120.996 38.3579C121.001 38.158 120.959 37.9599 120.873 37.7816C120.787 37.6034 120.66 37.4506 120.503 37.3374C120.176 37.0903 119.804 36.9627 119.395 36.9627C118.545 36.9627 117.687 37.17 116.814 37.5846C115.969 37.9833 115.193 38.5306 114.523 39.203C113.864 39.874 113.32 40.6587 112.914 41.523C112.496 42.4079 112.284 43.2849 112.284 44.1698C112.284 45.0548 112.603 45.7643 113.24 46.3144C113.839 46.8493 114.601 47.1407 115.388 47.1356C116.185 47.1356 117.141 46.9124 118.272 46.4739C118.841 46.2586 119.38 46.0035 119.88 45.7165C120.063 45.6129 120.229 45.4933 120.381 45.3737C120.457 45.86 120.654 46.2586 120.973 46.5696C121.299 46.8964 121.724 47.0639 122.241 47.0639C122.757 47.0639 123.424 46.7609 124.236 46.163C125.056 45.565 125.777 44.8316 126.407 43.9705C126.255 44.3293 126.179 44.7439 126.179 45.2222C126.178 45.6946 126.33 46.1533 126.612 46.5217C126.9 46.9124 127.348 47.1117 127.963 47.1117C128.577 47.1117 129.253 46.7928 130.004 46.155C130.755 45.5172 131.233 44.9671 131.453 44.5127C131.499 44.417 131.522 44.2416 131.522 43.9944C131.522 43.7545 131.507 43.5147 131.476 43.2769L131.499 43.2849ZM126.111 41.8578C125.792 42.2724 125.147 42.9182 124.176 43.8031C123.204 44.6881 122.612 45.1265 122.4 45.1265C122.248 45.1265 122.172 44.991 122.172 44.704C122.172 44.417 122.377 43.9068 122.795 43.1494C123.212 42.392 123.66 41.7382 124.153 41.1961C125.542 39.6813 126.885 38.9239 128.183 38.9239L126.111 41.8578ZM73.9069 36.014C74.127 36.014 74.7113 35.7349 75.6447 35.1848C76.5782 34.6347 77.1473 34.252 77.3522 34.0448C77.9897 33.6063 78.3084 33.0562 78.3084 32.4024C78.3084 32.1553 78.2402 31.8922 78.096 31.6211C77.9518 31.3421 77.8076 31.2065 77.6558 31.2065C77.504 31.2065 77.3978 31.2783 77.3447 31.4218C77.2957 31.5688 77.2121 31.7004 77.1018 31.8045C76.988 31.9161 76.7831 32.0835 76.4871 32.2988L75.4474 33.1279C75.0528 33.4628 74.6885 33.8215 74.3622 34.1962C74.0393 34.5618 73.7868 34.9895 73.6185 35.4559C73.584 35.5276 73.5658 35.6067 73.5654 35.6871C73.5654 35.8944 73.6792 35.998 73.8993 35.998L73.9069 36.014ZM84.1291 36.4843C83.2716 36.4843 82.2091 36.7634 80.9494 37.3135C80.3119 37.5925 79.7124 37.9194 79.1584 38.2861C78.6044 38.6529 78.1415 39.0914 77.7772 39.6096C77.4054 40.1278 77.2232 40.646 77.2232 41.1642C77.2232 41.6824 77.3978 42.081 77.762 42.3441C77.9154 42.4616 78.0809 42.5605 78.2553 42.6391C78.4147 42.7109 78.6348 42.7906 78.908 42.8703L80.2208 43.2211L81.511 43.5958C81.7614 43.6995 81.8904 43.8111 81.8904 43.9466C81.8904 44.2336 81.5413 44.5206 80.8356 44.8076C80.1298 45.0947 79.3254 45.2382 78.4147 45.2382C78.2933 45.2382 78.1567 45.1664 78.0125 45.0229C77.8683 44.8794 77.7924 44.712 77.7924 44.5047V44.3133C77.8 44.2017 77.7241 44.13 77.5875 44.0901V44.0104C77.588 43.7704 77.5728 43.5307 77.542 43.2929C77.5116 43.0617 77.4205 42.95 77.2764 42.95C77.1853 42.95 77.117 42.974 77.0715 43.0059C77.0259 43.0457 76.8893 43.2052 76.6541 43.4762L75.9407 44.2735C75.6979 44.5366 75.4171 44.7758 75.1059 45.007C74.7948 45.2302 74.5216 45.3498 74.2939 45.3498C74.0663 45.3498 73.9524 45.1345 73.9524 44.6881C73.9524 44.5446 73.96 44.4329 73.9828 44.3532C74.0966 43.7074 74.347 42.9261 74.7417 42.0173L75.8117 39.769L76.4416 38.7326C76.5402 38.6289 76.5858 38.4695 76.5858 38.2383C76.5858 37.8237 76.2974 37.6164 75.7206 37.6164C75.4702 37.6164 75.2805 37.6563 75.1591 37.7281C75.03 37.7998 74.8783 37.9832 74.6961 38.2702C74.6278 38.0549 74.4609 37.8716 74.2029 37.7281C73.9448 37.5846 73.6109 37.5128 73.2011 37.5128C72.1387 37.5128 70.9776 38.031 69.7178 39.0674C69.1196 39.5605 68.5658 40.1102 68.0634 40.7098C67.5626 41.3157 67.1604 41.9774 66.8492 42.7109C66.6955 43.0716 66.5784 43.4484 66.5001 43.835L66.1207 44.2097C65.8442 44.4709 65.55 44.7107 65.2404 44.9272C64.9065 45.1584 64.656 45.286 64.4739 45.3019C64.2918 45.3179 64.1324 45.294 64.0034 45.2222C63.8744 45.1584 63.8061 44.9352 63.8061 44.5685C63.8061 44.3054 64.1096 43.6676 64.7243 42.6471L66.5608 39.6096C67.1755 38.5971 67.4867 37.9593 67.4867 37.6962C67.4867 37.4331 67.388 37.2019 67.1907 37.0105C66.9934 36.8192 66.7506 36.7235 66.4622 36.7235C65.6198 36.7235 64.785 36.9946 63.9654 37.5367C63.5753 37.8076 63.2049 38.1087 62.8575 38.4376L61.8709 39.4342L60.9071 40.5344L60.0192 41.5309C60.0344 41.507 60.1331 41.3874 60.3076 41.1562L60.6643 40.7018L60.9754 40.2633C61.1272 40.056 61.2334 39.8806 61.3017 39.7451L61.537 39.2668C61.6222 39.0954 61.6859 38.9131 61.7267 38.7246C61.7647 38.5492 61.7799 38.3419 61.7799 38.0788C61.7799 37.8158 61.6812 37.5766 61.4763 37.3454C61.2714 37.1221 60.983 37.0026 60.6112 37.0026C60.2393 37.0026 59.6246 37.2816 58.7898 37.8317C57.9475 38.3898 57.014 39.2269 55.9743 40.359L56.5435 39.6175L57.4086 38.4695C57.6515 38.1347 57.8033 37.8955 57.864 37.744C57.9247 37.5925 57.9551 37.4809 57.9551 37.3932C57.9551 37.0823 57.8564 36.9228 57.6667 36.9228C57.3479 36.9228 57.0216 36.9786 56.6801 37.0982C56.3386 37.2178 56.0958 37.3852 55.944 37.6085C54.5628 39.6574 53.1285 42.392 51.6487 45.8122C51.588 46.0195 51.5576 46.163 51.5576 46.2507C51.5576 46.3384 51.5804 46.3942 51.6259 46.4261C51.6714 46.458 51.7397 46.5138 51.8232 46.5775C51.9143 46.6493 51.9902 46.6971 52.0661 46.721H52.271L52.8326 46.745C52.9009 46.745 53.0299 46.6254 53.2348 46.3862C53.4321 46.147 53.5687 45.9716 53.637 45.86C54.6918 43.9546 56.1792 42.0332 58.0992 40.1039C58.7974 39.4023 59.2603 39.0515 59.4804 39.0515C59.7005 39.0515 59.8143 39.1472 59.8143 39.3465C59.8143 39.5458 59.2072 40.7177 58.0006 42.8783L56.1868 46.2347C56.1868 46.3942 56.3234 46.5217 56.589 46.6254C56.8547 46.721 57.1127 46.7769 57.3555 46.7769C57.5984 46.7769 57.7805 46.6971 57.8943 46.5377L59.784 43.9865C60.7933 42.7188 61.9923 41.4034 63.3811 40.0401C64.1931 39.2428 64.7168 38.8442 64.952 38.8442C65.0127 38.8442 65.0431 38.8602 65.0431 38.9C65.0431 38.9399 64.8761 39.195 64.5498 39.6733L63.4646 41.2678C63.0499 41.8933 62.6869 42.5547 62.3794 43.245C62.0455 43.9705 61.8861 44.5924 61.8861 45.1026C61.8861 45.6129 62.0379 46.0514 62.3338 46.4261C62.6298 46.8008 63.1762 47.024 63.9579 47.1037C63.9958 47.1037 64.0565 47.1197 64.14 47.1197C64.8306 47.1197 65.5515 46.7928 66.3028 46.147L66.5684 45.9078C66.6747 46.155 66.8189 46.3782 67.0086 46.5616C67.3349 46.8885 67.7599 47.0559 68.2759 47.0559C68.792 47.0559 69.4598 46.7529 70.2718 46.155C71.0914 45.5571 71.8124 44.8236 72.4422 43.9626C72.2905 44.3213 72.2146 44.7359 72.2146 45.2142C72.213 45.6866 72.3657 46.1453 72.6471 46.5138C72.9355 46.9044 73.3833 47.1037 73.998 47.1037C74.6127 47.1037 75.2881 46.7848 76.0394 46.147C76.138 46.0673 76.2291 45.9876 76.3126 45.9078C76.3733 46.2028 76.5326 46.4659 76.8058 46.6892C77.1549 46.9841 77.7772 47.1276 78.6879 47.1276C79.5986 47.1276 80.661 46.8087 81.8828 46.1789C82.452 45.8919 82.9301 45.5172 83.3171 45.0628C83.7041 44.6083 83.9015 44.122 83.9015 43.6118C83.9015 43.3646 83.8028 43.0856 83.6131 42.7826C83.4234 42.4797 83.0819 42.2086 82.5886 41.9694C82.0953 41.7303 81.0632 41.4432 79.4923 41.1164C79.1432 41.0446 78.9687 40.9489 78.9687 40.8373C78.9687 40.7257 79.0977 40.5424 79.3557 40.2952C79.6137 40.0481 79.9401 39.7929 80.3271 39.5139C80.7679 39.2158 81.2388 38.9699 81.731 38.7804C82.2774 38.5652 82.8011 38.4376 83.3019 38.4137C83.2716 38.5253 83.2185 38.6289 83.1426 38.7326C83.0667 38.8362 83.0287 38.9319 83.0287 39.0276C83.0287 39.1232 83.0591 39.1791 83.1122 39.2109C83.1689 39.234 83.2186 39.2725 83.2564 39.3226C83.2943 39.3784 83.3399 39.4182 83.4006 39.4501C83.4613 39.482 83.5979 39.498 83.8104 39.498C84.0229 39.498 84.3188 39.4023 84.6907 39.2109C85.0626 39.0196 85.3282 38.8043 85.5027 38.5652C85.6773 38.326 85.7607 37.9911 85.7607 37.5686V37.4809C85.7607 37.3135 85.7304 37.162 85.6697 37.0265C85.4724 36.6438 84.9487 36.4525 84.1064 36.4525L84.1291 36.4843ZM72.1614 41.8658C71.8427 42.2804 71.1977 42.9261 70.2263 43.8111C69.2549 44.696 68.663 45.1345 68.4505 45.1345C68.2987 45.1345 68.2228 44.999 68.2228 44.712C68.2228 44.425 68.4277 43.9147 68.8451 43.1573C69.2625 42.3999 69.7102 41.7462 70.2035 41.2041C71.5923 39.6893 72.9355 38.9319 74.2332 38.9319L72.1614 41.8658Z" fill="#FFA500"/>
<path d="M14.4253 29.7933V11.2492V10.8586H14.0534L12.2245 10.8665H11.8602V11.2492V32.2089V32.5916H12.2245L20.6102 32.5996H20.9745V32.2169V30.1759V29.7933H20.6102H14.4253ZM37.3134 16.0008H34.8166V17.8026C34.3233 17.2366 33.7542 16.7821 33.1091 16.4234C32.1529 15.9052 31.0905 15.6421 29.9673 15.6421H29.9597C27.7589 15.6421 25.8921 16.4871 24.435 18.1534C22.9779 19.8117 22.2342 21.9005 22.2342 24.364C22.2342 26.8275 22.9628 28.8445 24.3895 30.5028C25.8314 32.1611 27.6527 33.0062 29.8079 33.0062C30.9766 33.0062 32.0846 32.7351 33.0863 32.193C33.7618 31.8263 34.3461 31.3638 34.8318 30.8217V32.5916H37.3209V16.0008H37.3134ZM29.899 18.2969C31.1967 18.2969 32.3123 18.8709 33.314 20.0429C34.3309 21.2308 34.8242 22.5861 34.8242 24.1806C34.8242 25.8867 34.3233 27.3537 33.3216 28.5575C32.3199 29.7614 31.1891 30.3513 29.8535 30.3513C28.5178 30.3513 27.3036 29.7933 26.3095 28.6532C25.3229 27.5211 24.8145 26.11 24.8069 24.4437C24.8069 22.6738 25.3001 21.2308 26.3095 20.0509C27.3036 18.8709 28.4799 18.2969 29.8914 18.2969H29.899ZM55.2838 11.1137L55.1928 10.8586H52.476L52.3849 11.1216L45.1679 32.0734L44.9857 32.5836H47.7025L47.786 32.3365L49.9261 26.0143H57.6971L59.8448 32.3365L59.9282 32.5916H62.6602L62.4857 32.0734L55.2763 11.1137H55.2838ZM56.8092 23.3674H50.8292L53.7888 14.3824L56.8016 23.3674H56.8092ZM70.621 16.1364V15.7457L70.2415 15.7617C69.4902 15.7856 68.8148 15.9769 68.2381 16.3357C67.9269 16.527 67.631 16.7901 67.3426 17.101V15.9929H64.9066V32.5916H67.4792V22.6579C67.4792 21.2946 67.6993 20.314 68.1318 19.7399C68.5492 19.1819 69.2853 18.847 70.3023 18.7354L70.6362 18.7035V18.3527L70.621 16.1364ZM87.0889 15.9929H84.6073V17.7946C84.1153 17.2369 83.535 16.773 82.8922 16.4234C81.936 15.9052 80.8736 15.6421 79.7428 15.6421C77.5421 15.6421 75.6752 16.4871 74.2105 18.1534C72.7535 19.8117 72.0098 21.9085 72.0173 24.364C72.0173 26.7797 72.7383 28.8445 74.1726 30.4948C75.6069 32.1611 77.4358 32.9982 79.5986 32.9982C80.7329 33.0075 81.8524 32.7285 82.8619 32.185C83.5373 31.8183 84.1216 31.3559 84.6149 30.8058V32.5836H87.1041V15.9929H87.0889ZM79.629 30.5427V30.3513C78.2402 30.3513 77.0867 29.7933 76.085 28.6532C75.0833 27.5052 74.5976 26.1259 74.5976 24.4437C74.5976 22.7615 75.0984 21.2148 76.0926 20.0429C77.0791 18.8789 78.2782 18.2969 79.6745 18.2969C80.9722 18.2969 82.0878 18.8709 83.0971 20.0429C84.0989 21.2228 84.5997 22.618 84.5997 24.1806C84.5997 25.8788 84.0989 27.3537 83.0971 28.5575C82.103 29.7614 80.9646 30.3513 79.6214 30.3513V30.5427H79.629ZM102.934 15.9929H100.392V24.1567L100.263 27.0188C100.18 27.5291 100.036 27.9835 99.8458 28.3582C99.5119 28.988 99.0566 29.4744 98.495 29.8172C97.9486 30.1441 97.2883 30.3115 96.5446 30.3115C95.2469 30.3115 94.3135 29.9129 93.7671 29.1236C93.1979 28.2944 92.902 26.8275 92.902 24.7706V15.9849H90.3825V24.6271C90.3825 27.553 90.8681 29.6976 91.8092 30.9971C92.7654 32.3285 94.3514 32.9982 96.4915 32.9982C97.5008 32.9982 98.3736 32.8228 99.0869 32.4561C99.5498 32.2249 99.99 31.898 100.392 31.4914V32.5836H102.934V15.9929ZM113.013 18.2411C114.052 18.2411 114.91 18.4882 115.653 19.0065C116.397 19.5167 117.035 20.3299 117.558 21.4221L117.665 21.6294H120.404L120.23 21.1112C119.638 19.3732 118.712 17.994 117.49 17.0293C116.268 16.0487 114.834 15.5544 113.233 15.5544C111.1 15.5544 109.264 16.4154 107.776 18.1215C106.296 19.8117 105.553 21.9085 105.553 24.3321C105.553 26.7159 106.289 28.7728 107.753 30.463C109.218 32.1691 111.047 33.0381 113.172 33.0381C114.841 33.0381 116.306 32.5358 117.536 31.5472C118.757 30.5666 119.66 29.1634 120.23 27.3776L120.381 26.8674H117.642L117.551 27.1065C117.133 28.143 116.534 28.9322 115.767 29.4744C115.001 30.0404 114.098 30.3195 113.096 30.3195C111.692 30.3195 110.554 29.7614 109.598 28.6133C108.649 27.4733 108.163 26.0143 108.163 24.2922C108.163 22.5702 108.626 21.1271 109.59 19.9552C110.539 18.7992 111.654 18.2331 113.005 18.2331L113.013 18.2411ZM137.745 15.9929H135.256V17.8026C134.762 17.2445 134.186 16.7821 133.54 16.4234C132.592 15.9052 131.537 15.6421 130.406 15.6421H130.383C128.183 15.6421 126.323 16.4871 124.859 18.1534C123.402 19.8117 122.658 21.8925 122.658 24.356C122.658 26.8195 123.379 28.8366 124.813 30.4948C126.248 32.1611 128.076 32.9982 130.239 33.0062C131.408 33.0062 132.508 32.7351 133.51 32.193C134.186 31.8263 134.77 31.3638 135.263 30.8137V32.5916H137.752V15.9929H137.745ZM130.33 18.2889C131.628 18.2889 132.744 18.8709 133.753 20.0429C134.762 21.2388 135.256 22.5941 135.256 24.1806C135.256 25.8708 134.755 27.3457 133.753 28.5575C132.751 29.7614 131.62 30.3513 130.292 30.3513C128.904 30.3513 127.743 29.7933 126.748 28.6532C125.754 27.5131 125.253 26.094 125.253 24.4437C125.253 22.7057 125.754 21.2228 126.756 20.0429C127.75 18.8709 128.926 18.2969 130.338 18.2889H130.33ZM152.619 18.3607C152.127 17.5002 151.411 16.8058 150.555 16.3596C149.712 15.9052 148.726 15.674 147.633 15.674C146.646 15.674 145.751 15.8653 144.985 16.2241C144.469 16.4734 143.993 16.8041 143.573 17.2047V15.9929H141.084V32.5996H143.581V24.5075L143.702 21.6852C143.785 21.175 143.93 20.7206 144.135 20.3299C144.453 19.708 144.893 19.2297 145.455 18.8948C146.024 18.56 146.662 18.3926 147.428 18.3926C148.726 18.3926 149.629 18.7593 150.198 19.5087C150.775 20.2741 151.071 21.5656 151.071 23.3435V32.5916H153.583V23.9335C153.583 22.4346 153.514 21.2707 153.37 20.4814C153.218 19.6762 152.96 18.9586 152.619 18.3607ZM171.288 16.3835V16.0008H168.798V17.8026C168.308 17.2444 167.73 16.778 167.091 16.4234C166.135 15.9052 165.072 15.6421 163.934 15.6421C161.726 15.6421 159.866 16.4871 158.402 18.1534C156.937 19.8117 156.201 21.9005 156.201 24.356C156.201 26.8115 156.929 28.8445 158.356 30.4948C159.798 32.1531 161.619 32.9982 163.775 32.9982C164.943 32.9982 166.044 32.7271 167.053 32.185C167.728 31.8263 168.305 31.3638 168.798 30.8137V32.5916H171.288V16.3835ZM163.873 18.2969C165.156 18.2969 166.302 18.8869 167.288 20.0429C168.305 21.2308 168.798 22.5861 168.806 24.1806C168.806 25.8788 168.305 27.3537 167.303 28.5575C166.317 29.7454 165.156 30.3513 163.835 30.3513C162.447 30.3513 161.285 29.7933 160.284 28.6532C159.297 27.5131 158.789 26.102 158.796 24.4437C158.796 22.6977 159.297 21.2228 160.299 20.0429C161.278 18.8869 162.477 18.2969 163.873 18.2969ZM47.3155 44.8932H6.4797C4.85607 44.8911 3.29951 44.2126 2.15143 43.0064C1.00335 41.8003 0.357477 40.1651 0.355469 38.4594V6.43381C0.357477 4.72811 1.00335 3.09287 2.15143 1.88675C3.29951 0.680634 4.85607 0.00210972 6.4797 0H176.615C178.239 0.00210972 179.795 0.680634 180.943 1.88675C182.091 3.09287 182.737 4.72811 182.739 6.43381V38.4674C182.737 40.1731 182.091 41.8083 180.943 43.0144C179.795 44.2205 178.239 44.8991 176.615 44.9012H137.593C136.94 44.9012 136.409 44.3431 136.409 43.6575C136.409 42.9718 136.94 42.4137 137.593 42.4137H176.615C178.687 42.4137 180.364 40.6438 180.364 38.4753V6.43381C180.364 4.25732 178.679 2.4954 176.615 2.4954H6.4797C4.40794 2.4954 2.73079 4.26529 2.73079 6.43381V38.4594C2.73079 40.6359 4.41552 42.3978 6.4797 42.3978H47.3155C47.9682 42.3978 48.4994 42.9559 48.4994 43.6415C48.4994 44.3271 47.9682 44.8852 47.3155 44.8852V44.8932ZM183.824 2.48742C183.824 2.14461 183.885 1.8257 184.014 1.52275C184.136 1.21979 184.31 0.956701 184.523 0.733471C184.735 0.510241 184.986 0.326873 185.274 0.199313C185.564 0.0683978 185.876 0.000596252 186.192 0C186.519 0 186.822 0.0637801 187.11 0.199313C187.399 0.334845 187.649 0.510241 187.862 0.733471C188.074 0.956701 188.249 1.21979 188.37 1.52275C188.495 1.82754 188.559 2.1557 188.56 2.48742C188.56 2.83024 188.499 3.14914 188.37 3.4521C188.241 3.75505 188.074 4.01814 187.862 4.24137C187.649 4.4646 187.399 4.64797 187.11 4.77553C186.82 4.90645 186.508 4.97425 186.192 4.97485C185.866 4.97485 185.562 4.91107 185.274 4.77553C184.986 4.64797 184.735 4.4646 184.523 4.24137C184.31 4.01814 184.136 3.75505 184.014 3.4521C183.885 3.14914 183.824 2.83024 183.824 2.48742ZM184.242 2.48742C184.242 2.76646 184.295 3.03753 184.394 3.28467C184.491 3.52888 184.633 3.75089 184.811 3.93842C184.986 4.12179 185.19 4.27326 185.433 4.37691C185.669 4.48055 185.927 4.53636 186.192 4.53636C186.458 4.53636 186.716 4.48055 186.951 4.37691C187.184 4.27437 187.395 4.12546 187.573 3.93842C187.748 3.75505 187.892 3.53979 187.991 3.28467C188.089 3.03753 188.143 2.76646 188.143 2.48742C188.143 2.20839 188.089 1.93732 187.991 1.69017C187.893 1.44596 187.751 1.22395 187.573 1.03643C187.399 0.853059 187.194 0.701581 186.951 0.597938C186.716 0.494296 186.458 0.438488 186.192 0.438488C185.927 0.438488 185.669 0.494296 185.433 0.597938C185.201 0.700473 184.99 0.849383 184.811 1.03643C184.636 1.21979 184.492 1.43505 184.394 1.69017C184.295 1.93732 184.242 2.20839 184.242 2.48742ZM185.251 1.11615H186.245C186.556 1.11615 186.784 1.1879 186.928 1.32344C187.072 1.46694 187.148 1.66625 187.148 1.92935C187.148 2.16852 187.088 2.34392 186.974 2.46351C186.86 2.58309 186.716 2.65485 186.534 2.67079L187.202 3.81086H186.708L186.071 2.70268H185.729V3.81086H185.259V1.10818L185.251 1.11615ZM185.722 2.28811H186.063L186.283 2.28014C186.351 2.27362 186.417 2.25753 186.481 2.2323C186.537 2.20924 186.587 2.17071 186.625 2.12069C186.663 2.07285 186.678 2.0011 186.678 1.9134C186.678 1.8257 186.663 1.75395 186.625 1.70612C186.587 1.6561 186.537 1.61757 186.481 1.5945C186.417 1.56928 186.351 1.55318 186.283 1.54667H186.063H185.722V2.30405V2.28811Z" fill="#00539B"/>
</svg>
