<svg width="26" height="27" viewBox="0 0 26 27" fill="none" xmlns="http://www.w3.org/2000/svg">
<path d="M22.969 26.1313H3.03134C1.35712 26.1313 0 24.7742 0 23.1V3.16266C0 1.48845 1.35712 0.131348 3.03134 0.131348H22.9687C24.6429 0.131348 26 1.48845 26 3.16266V23.0997C26.0003 24.7742 24.6432 26.1313 22.969 26.1313Z" fill="#00539B"/>
<path d="M4.14901 4.92084L11.1345 14.2612L4.10498 21.8551H5.68716L11.8416 15.2064L16.8141 21.8551H22.1979L14.8193 11.9895L21.3623 4.92084H19.7802L14.1124 11.044L9.53286 4.92084H4.14901ZM6.47567 6.08645H8.94899L19.8709 20.6898H17.3976L6.47567 6.08645Z" fill="white"/>
</svg>
