<svg width="37" height="35" viewBox="0 0 37 26" fill="none" xmlns="http://www.w3.org/2000/svg">
<path d="M35.8289 4.06147C35.6206 3.275 35.2122 2.55779 34.6445 1.98161C34.0769 1.40544 33.3699 0.990506 32.5944 0.778344C29.7396 1.57933e-07 18.2963 0 18.2963 0C18.2963 0 6.85294 -1.57933e-07 3.99823 0.774204C3.22236 0.985677 2.51502 1.40038 1.94727 1.97666C1.37952 2.55294 0.971334 3.27052 0.763707 4.05732C-1.55792e-07 6.95541 0 13 0 13C0 13 -1.55792e-07 19.0446 0.763707 21.9385C1.18436 23.5366 2.42589 24.7952 3.99823 25.2217C6.85294 26 18.2963 26 18.2963 26C18.2963 26 29.7396 26 32.5944 25.2217C34.1708 24.7952 35.4082 23.5366 35.8289 21.9385C36.5926 19.0446 36.5926 13 36.5926 13C36.5926 13 36.5926 6.95541 35.8289 4.06147ZM14.6615 18.5478V7.45223L24.1364 12.9586L14.6615 18.5478Z" fill="#00539B"/>
</svg>
