<?xml version="1.0" encoding="UTF-8"?>
<svg xmlns="http://www.w3.org/2000/svg" xmlns:xlink="http://www.w3.org/1999/xlink" width="250px" height="75px" viewBox="0 0 250 75" version="1.1">
<g id="surface1">
<path style=" stroke:none;fill-rule:nonzero;fill:rgb(100%,64.705882%,0%);fill-opacity:1;" d="M 150.410156 58.140625 C 150.410156 57.75 150.28125 57.429688 150.011719 57.191406 C 149.738281 56.941406 149.410156 56.820312 149 56.820312 C 147.339844 56.820312 145.328125 58.160156 142.96875 60.839844 L 143.601562 59.890625 C 144.46875 58.589844 144.910156 57.699219 144.910156 57.230469 C 144.910156 56.929688 144.789062 56.78125 144.550781 56.78125 C 143.480469 56.78125 142.71875 57.058594 142.269531 57.640625 C 142.03125 57.941406 141.71875 58.421875 141.339844 59.078125 L 139.691406 61.871094 L 137.660156 65.320312 L 137.460938 65.671875 L 137.449219 65.671875 C 136.976562 65.984375 136.472656 66.257812 135.949219 66.480469 C 135.460938 66.691406 134.851562 66.878906 134.101562 67.050781 C 133.351562 67.230469 132.601562 67.308594 131.859375 67.308594 C 131.121094 67.308594 130.578125 67.128906 130.269531 66.78125 C 129.949219 66.429688 129.800781 66 129.800781 65.511719 C 129.800781 64.839844 129.949219 64.191406 130.25 63.550781 C 131.328125 63.820312 132.320312 63.960938 133.230469 63.960938 C 134.25 63.960938 135.171875 63.789062 136 63.449219 C 137.089844 63 138.019531 62.171875 138.550781 61.179688 C 139.058594 60.230469 139.378906 58.710938 138.601562 57.578125 C 138.03125 56.761719 136.570312 55.671875 133.140625 57.511719 C 132.171875 58.03125 131.269531 58.730469 130.398438 59.640625 L 130.398438 59.621094 C 129.53125 60.460938 128.820312 61.429688 128.269531 62.53125 C 127.933594 63.203125 127.691406 63.921875 127.550781 64.660156 L 127.148438 64.988281 C 127 65.121094 126.671875 65.339844 126.148438 65.671875 C 125.640625 66 125.140625 66.269531 124.648438 66.46875 C 124.160156 66.679688 123.550781 66.871094 122.800781 67.039062 C 122.050781 67.21875 121.300781 67.300781 120.558594 67.300781 C 119.820312 67.300781 119.28125 67.121094 118.96875 66.769531 C 118.648438 66.421875 118.5 65.988281 118.5 65.5 C 118.5 64.28125 119 63.101562 120 61.96875 C 120.449219 61.460938 120.9375 60.992188 121.460938 60.558594 C 122.003906 60.121094 122.578125 59.71875 123.179688 59.359375 C 123.808594 58.980469 124.398438 58.789062 124.949219 58.789062 C 125.058594 58.789062 125.121094 58.859375 125.121094 59.011719 C 125.121094 59.160156 124.96875 59.429688 124.671875 59.839844 C 124.371094 60.25 124.21875 60.539062 124.21875 60.699219 C 124.21875 61.308594 124.539062 61.621094 125.179688 61.621094 C 125.730469 61.621094 126.269531 61.238281 126.808594 60.488281 C 127.339844 59.730469 127.609375 59.089844 127.609375 58.550781 C 127.625 58.039062 127.378906 57.558594 126.960938 57.269531 C 126.53125 56.960938 126.050781 56.800781 125.5 56.800781 C 124.378906 56.800781 123.25 57.058594 122.101562 57.578125 C 120.984375 58.082031 119.964844 58.765625 119.078125 59.609375 C 118.210938 60.453125 117.496094 61.4375 116.960938 62.519531 C 116.410156 63.628906 116.128906 64.730469 116.128906 65.839844 C 116.128906 66.949219 116.550781 67.839844 117.390625 68.53125 C 118.179688 69.199219 119.183594 69.566406 120.21875 69.558594 C 121.269531 69.558594 122.53125 69.28125 124.019531 68.730469 C 124.769531 68.460938 125.480469 68.140625 126.140625 67.78125 C 126.65625 67.496094 127.128906 67.140625 127.539062 66.71875 C 127.710938 67.429688 128.089844 68.03125 128.699219 68.53125 C 129.488281 69.199219 130.492188 69.566406 131.53125 69.558594 C 132.578125 69.558594 133.839844 69.28125 135.328125 68.730469 L 136.160156 68.398438 C 136.179688 68.460938 136.210938 68.511719 136.25 68.539062 C 136.328125 68.601562 136.539062 68.699219 136.898438 68.828125 C 137.25 68.960938 137.539062 69.03125 137.761719 69.03125 C 137.980469 69.03125 138.238281 68.820312 138.550781 68.378906 L 141.53125 64.710938 L 144.859375 61.300781 C 146.171875 60.03125 146.980469 59.378906 147.308594 59.351562 L 147.339844 59.378906 C 146.601562 60.25 146.230469 61.03125 146.230469 61.71875 C 146.226562 62.011719 146.316406 62.296875 146.488281 62.53125 C 146.660156 62.761719 146.910156 62.878906 147.21875 62.878906 C 147.53125 62.878906 147.820312 62.71875 148.070312 62.398438 C 148.539062 61.769531 149.050781 61 149.609375 60.078125 C 150.171875 59.160156 150.441406 58.511719 150.441406 58.121094 Z M 134.160156 59.480469 C 135.671875 58.671875 136.570312 58.621094 136.730469 58.851562 C 136.871094 59.050781 136.828125 59.609375 136.550781 60.128906 C 136.261719 60.671875 135.730469 61.140625 135.121094 61.390625 C 134.179688 61.78125 133.03125 61.839844 131.621094 61.578125 C 132.429688 60.648438 133.289062 59.949219 134.160156 59.480469 Z M 173.808594 64.738281 C 173.769531 64.449219 173.648438 64.308594 173.460938 64.308594 C 173.339844 64.308594 173.25 64.339844 173.191406 64.378906 C 173.128906 64.429688 172.949219 64.628906 172.640625 64.96875 L 171.699219 65.96875 C 171.378906 66.300781 171.011719 66.601562 170.601562 66.890625 C 170.191406 67.171875 169.828125 67.320312 169.53125 67.320312 C 169.230469 67.320312 169.078125 67.050781 169.078125 66.488281 C 169.078125 66.347656 169.09375 66.207031 169.128906 66.070312 C 169.28125 65.261719 169.609375 64.28125 170.128906 63.140625 L 171.539062 60.320312 C 171.960938 59.578125 172.238281 59.148438 172.371094 59.019531 C 172.5 58.890625 172.558594 58.691406 172.558594 58.398438 C 172.558594 57.878906 172.179688 57.621094 171.421875 57.621094 C 171.089844 57.621094 170.839844 57.671875 170.679688 57.761719 C 170.511719 57.851562 170.308594 58.078125 170.070312 58.441406 C 169.980469 58.171875 169.761719 57.941406 169.421875 57.761719 C 169.078125 57.578125 168.640625 57.488281 168.101562 57.488281 C 166.699219 57.488281 165.171875 58.140625 163.511719 59.441406 C 162.722656 60.058594 161.992188 60.746094 161.328125 61.5 C 160.671875 62.261719 160.140625 63.089844 159.730469 64.011719 C 159.558594 64.378906 159.441406 64.761719 159.339844 65.128906 L 158.511719 65.679688 C 157.988281 66.011719 157.488281 66.28125 157.011719 66.480469 C 156.519531 66.691406 155.910156 66.878906 155.160156 67.050781 C 154.410156 67.230469 153.660156 67.308594 152.921875 67.308594 C 152.179688 67.308594 151.640625 67.128906 151.328125 66.78125 C 151.011719 66.429688 150.859375 66 150.859375 65.511719 C 150.859375 64.289062 151.359375 63.109375 152.359375 61.980469 C 152.808594 61.472656 153.296875 61 153.820312 60.570312 C 154.367188 60.132812 154.941406 59.730469 155.539062 59.371094 C 156.171875 58.988281 156.761719 58.800781 157.308594 58.800781 C 157.421875 58.800781 157.480469 58.871094 157.480469 59.019531 C 157.480469 59.171875 157.328125 59.441406 157.03125 59.851562 C 156.730469 60.261719 156.578125 60.550781 156.578125 60.710938 C 156.578125 61.320312 156.898438 61.628906 157.539062 61.628906 C 158.089844 61.628906 158.628906 61.25 159.171875 60.5 C 159.710938 59.738281 159.96875 59.101562 159.96875 58.558594 C 159.984375 58.050781 159.738281 57.570312 159.320312 57.28125 C 158.890625 56.96875 158.398438 56.808594 157.859375 56.808594 C 156.738281 56.808594 155.609375 57.070312 154.460938 57.589844 C 153.34375 58.089844 152.324219 58.777344 151.441406 59.621094 C 150.570312 60.460938 149.855469 61.445312 149.320312 62.53125 C 148.769531 63.640625 148.488281 64.738281 148.488281 65.851562 C 148.488281 66.960938 148.910156 67.851562 149.75 68.539062 C 150.539062 69.210938 151.542969 69.578125 152.578125 69.570312 C 153.628906 69.570312 154.890625 69.289062 156.378906 68.738281 C 157.128906 68.46875 157.839844 68.148438 158.5 67.789062 C 158.738281 67.660156 158.960938 67.511719 159.160156 67.359375 C 159.261719 67.96875 159.519531 68.46875 159.941406 68.859375 C 160.371094 69.269531 160.929688 69.480469 161.609375 69.480469 C 162.289062 69.480469 163.171875 69.101562 164.238281 68.351562 C 165.320312 67.601562 166.269531 66.679688 167.101562 65.601562 C 166.898438 66.050781 166.800781 66.570312 166.800781 67.171875 C 166.796875 67.761719 167 68.335938 167.371094 68.800781 C 167.75 69.289062 168.339844 69.539062 169.148438 69.539062 C 169.960938 69.539062 170.851562 69.140625 171.839844 68.339844 C 172.828125 67.539062 173.460938 66.851562 173.75 66.28125 C 173.808594 66.160156 173.839844 65.941406 173.839844 65.628906 C 173.839844 65.328125 173.820312 65.027344 173.78125 64.730469 Z M 166.710938 62.949219 C 166.289062 63.46875 165.441406 64.28125 164.160156 65.390625 C 162.878906 66.5 162.101562 67.050781 161.820312 67.050781 C 161.621094 67.050781 161.519531 66.878906 161.519531 66.519531 C 161.519531 66.160156 161.789062 65.519531 162.339844 64.570312 C 162.890625 63.621094 163.480469 62.800781 164.128906 62.121094 C 165.960938 60.21875 167.730469 59.269531 169.441406 59.269531 Z M 97.921875 55.621094 C 98.210938 55.621094 98.980469 55.269531 100.210938 54.578125 C 101.441406 53.890625 102.191406 53.410156 102.460938 53.148438 C 103.300781 52.601562 103.71875 51.910156 103.71875 51.089844 C 103.71875 50.78125 103.628906 50.449219 103.441406 50.109375 C 103.25 49.761719 103.058594 49.589844 102.859375 49.589844 C 102.660156 49.589844 102.519531 49.679688 102.449219 49.859375 C 102.386719 50.042969 102.273438 50.210938 102.128906 50.339844 C 101.980469 50.480469 101.710938 50.691406 101.320312 50.960938 L 99.949219 52 C 99.429688 52.421875 98.949219 52.871094 98.519531 53.339844 C 98.09375 53.796875 97.761719 54.335938 97.539062 54.921875 C 97.496094 55.011719 97.46875 55.109375 97.46875 55.210938 C 97.46875 55.46875 97.621094 55.601562 97.910156 55.601562 Z M 111.390625 56.210938 C 110.261719 56.210938 108.859375 56.558594 107.199219 57.25 C 106.359375 57.601562 105.570312 58.011719 104.839844 58.46875 C 104.109375 58.929688 103.5 59.480469 103.019531 60.128906 C 102.53125 60.78125 102.289062 61.429688 102.289062 62.078125 C 102.289062 62.730469 102.519531 63.230469 103 63.558594 C 103.203125 63.707031 103.421875 63.832031 103.648438 63.929688 C 103.859375 64.019531 104.148438 64.121094 104.511719 64.21875 L 106.238281 64.660156 L 107.941406 65.128906 C 108.269531 65.261719 108.441406 65.398438 108.441406 65.570312 C 108.441406 65.929688 107.980469 66.289062 107.050781 66.648438 C 106.121094 67.011719 105.058594 67.191406 103.859375 67.191406 C 103.699219 67.191406 103.519531 67.101562 103.328125 66.921875 C 103.140625 66.738281 103.039062 66.53125 103.039062 66.269531 L 103.039062 66.03125 C 103.050781 65.890625 102.949219 65.800781 102.769531 65.75 L 102.769531 65.648438 C 102.769531 65.347656 102.75 65.046875 102.710938 64.75 C 102.671875 64.460938 102.550781 64.320312 102.359375 64.320312 C 102.238281 64.320312 102.148438 64.351562 102.089844 64.390625 C 102.03125 64.441406 101.851562 64.640625 101.539062 64.980469 L 100.601562 65.980469 C 100.28125 66.308594 99.910156 66.609375 99.5 66.898438 C 99.089844 67.179688 98.730469 67.328125 98.429688 67.328125 C 98.128906 67.328125 97.980469 67.058594 97.980469 66.5 C 97.980469 66.320312 97.988281 66.179688 98.019531 66.078125 C 98.171875 65.269531 98.5 64.289062 99.019531 63.148438 L 100.429688 60.328125 L 101.261719 59.03125 C 101.390625 58.898438 101.449219 58.699219 101.449219 58.410156 C 101.449219 57.890625 101.070312 57.628906 100.308594 57.628906 C 99.980469 57.628906 99.730469 57.679688 99.570312 57.769531 C 99.398438 57.859375 99.199219 58.089844 98.960938 58.449219 C 98.871094 58.179688 98.648438 57.949219 98.308594 57.769531 C 97.96875 57.589844 97.53125 57.5 96.988281 57.5 C 95.589844 57.5 94.058594 58.148438 92.398438 59.449219 C 91.613281 60.070312 90.882812 60.757812 90.21875 61.511719 C 89.558594 62.269531 89.03125 63.101562 88.621094 64.019531 C 88.417969 64.472656 88.261719 64.945312 88.160156 65.429688 L 87.660156 65.898438 C 87.296875 66.226562 86.90625 66.527344 86.5 66.800781 C 86.058594 67.089844 85.730469 67.25 85.488281 67.269531 C 85.25 67.289062 85.039062 67.261719 84.871094 67.171875 C 84.699219 67.089844 84.609375 66.808594 84.609375 66.351562 C 84.609375 66.019531 85.011719 65.21875 85.820312 63.941406 L 88.238281 60.128906 C 89.050781 58.859375 89.460938 58.058594 89.460938 57.730469 C 89.460938 57.398438 89.328125 57.109375 89.070312 56.871094 C 88.808594 56.628906 88.488281 56.511719 88.109375 56.511719 C 87 56.511719 85.898438 56.851562 84.820312 57.53125 C 84.304688 57.871094 83.816406 58.246094 83.359375 58.660156 L 82.058594 59.910156 L 80.789062 61.289062 L 79.621094 62.539062 C 79.640625 62.511719 79.769531 62.359375 80 62.070312 L 80.46875 61.5 L 80.878906 60.949219 C 81.078125 60.691406 81.21875 60.46875 81.308594 60.300781 L 81.621094 59.699219 C 81.730469 59.484375 81.816406 59.257812 81.871094 59.019531 C 81.921875 58.800781 81.941406 58.539062 81.941406 58.210938 C 81.941406 57.878906 81.808594 57.578125 81.539062 57.289062 C 81.269531 57.011719 80.890625 56.859375 80.398438 56.859375 C 79.910156 56.859375 79.101562 57.210938 78 57.898438 C 76.890625 58.601562 75.660156 59.648438 74.289062 61.070312 L 75.039062 60.140625 L 76.179688 58.699219 C 76.5 58.28125 76.699219 57.980469 76.78125 57.789062 C 76.859375 57.601562 76.898438 57.460938 76.898438 57.351562 C 76.898438 56.960938 76.769531 56.761719 76.519531 56.761719 C 76.101562 56.761719 75.671875 56.828125 75.21875 56.980469 C 74.769531 57.128906 74.449219 57.339844 74.25 57.621094 C 72.429688 60.191406 70.539062 63.621094 68.589844 67.910156 C 68.511719 68.171875 68.46875 68.351562 68.46875 68.460938 C 68.46875 68.570312 68.5 68.640625 68.558594 68.679688 C 68.621094 68.71875 68.710938 68.789062 68.820312 68.871094 C 68.941406 68.960938 69.039062 69.019531 69.140625 69.050781 L 69.410156 69.050781 L 70.148438 69.078125 C 70.238281 69.078125 70.410156 68.929688 70.679688 68.628906 C 70.941406 68.328125 71.121094 68.109375 71.210938 67.96875 C 72.601562 65.578125 74.558594 63.171875 77.089844 60.75 C 78.011719 59.871094 78.621094 59.429688 78.910156 59.429688 C 79.199219 59.429688 79.351562 59.550781 79.351562 59.800781 C 79.351562 60.050781 78.550781 61.519531 76.960938 64.230469 L 74.570312 68.441406 C 74.570312 68.640625 74.75 68.800781 75.101562 68.929688 C 75.449219 69.050781 75.789062 69.121094 76.109375 69.121094 C 76.429688 69.121094 76.671875 69.019531 76.820312 68.820312 L 79.308594 65.621094 C 80.640625 64.03125 82.21875 62.378906 84.050781 60.671875 C 85.121094 59.671875 85.808594 59.171875 86.121094 59.171875 C 86.199219 59.171875 86.238281 59.191406 86.238281 59.238281 C 86.238281 59.289062 86.019531 59.609375 85.589844 60.210938 L 84.160156 62.210938 C 83.613281 62.996094 83.136719 63.824219 82.730469 64.691406 C 82.289062 65.601562 82.078125 66.378906 82.078125 67.019531 C 82.078125 67.660156 82.28125 68.210938 82.671875 68.679688 C 83.058594 69.148438 83.78125 69.429688 84.808594 69.53125 C 84.859375 69.53125 84.941406 69.550781 85.050781 69.550781 C 85.960938 69.550781 86.910156 69.140625 87.898438 68.328125 L 88.25 68.03125 C 88.390625 68.339844 88.578125 68.621094 88.828125 68.851562 C 89.261719 69.261719 89.820312 69.46875 90.5 69.46875 C 91.179688 69.46875 92.058594 69.089844 93.128906 68.339844 C 94.210938 67.589844 95.160156 66.671875 95.988281 65.589844 C 95.789062 66.039062 95.691406 66.558594 95.691406 67.160156 C 95.6875 67.753906 95.890625 68.328125 96.261719 68.789062 C 96.640625 69.28125 97.230469 69.53125 98.039062 69.53125 C 98.851562 69.53125 99.738281 69.128906 100.730469 68.328125 C 100.859375 68.230469 100.980469 68.128906 101.089844 68.03125 C 101.171875 68.398438 101.378906 68.730469 101.738281 69.011719 C 102.199219 69.378906 103.019531 69.558594 104.21875 69.558594 C 105.421875 69.558594 106.820312 69.160156 108.429688 68.371094 C 109.179688 68.011719 109.808594 67.539062 110.320312 66.96875 C 110.828125 66.398438 111.089844 65.789062 111.089844 65.148438 C 111.089844 64.839844 110.960938 64.488281 110.710938 64.109375 C 110.460938 63.730469 110.011719 63.390625 109.359375 63.089844 C 108.710938 62.789062 107.351562 62.429688 105.28125 62.019531 C 104.820312 61.929688 104.589844 61.808594 104.589844 61.671875 C 104.589844 61.53125 104.761719 61.300781 105.101562 60.988281 C 105.441406 60.679688 105.871094 60.359375 106.378906 60.011719 C 106.960938 59.636719 107.582031 59.328125 108.230469 59.089844 C 108.949219 58.820312 109.640625 58.660156 110.300781 58.628906 C 110.261719 58.769531 110.191406 58.898438 110.089844 59.03125 C 109.988281 59.160156 109.941406 59.28125 109.941406 59.398438 C 109.941406 59.519531 109.980469 59.589844 110.050781 59.628906 C 110.125 59.660156 110.191406 59.707031 110.238281 59.769531 C 110.289062 59.839844 110.351562 59.890625 110.429688 59.929688 C 110.511719 59.96875 110.691406 59.988281 110.96875 59.988281 C 111.25 59.988281 111.640625 59.871094 112.128906 59.628906 C 112.621094 59.390625 112.96875 59.121094 113.199219 58.820312 C 113.429688 58.519531 113.539062 58.101562 113.539062 57.570312 L 113.539062 57.460938 C 113.539062 57.25 113.5 57.058594 113.421875 56.890625 C 113.160156 56.410156 112.46875 56.171875 111.359375 56.171875 Z M 95.621094 62.960938 C 95.199219 63.480469 94.351562 64.289062 93.070312 65.398438 C 91.789062 66.511719 91.011719 67.058594 90.730469 67.058594 C 90.53125 67.058594 90.429688 66.890625 90.429688 66.53125 C 90.429688 66.171875 90.699219 65.53125 91.25 64.578125 C 91.800781 63.628906 92.390625 62.808594 93.039062 62.128906 C 94.871094 60.230469 96.640625 59.28125 98.351562 59.28125 Z M 95.621094 62.960938 "/>
<path style=" stroke:none;fill-rule:nonzero;fill:rgb(100%, 100%, 100%);fill-opacity:1;" d="M 19.539062 42.800781 L 19.539062 19.050781 L 19.050781 19.050781 L 16.640625 19.058594 L 16.160156 19.058594 L 16.160156 46.308594 L 16.640625 46.308594 L 27.691406 46.320312 L 28.171875 46.320312 L 28.171875 42.800781 Z M 49.699219 25.5 L 46.410156 25.5 L 46.410156 27.761719 C 45.761719 27.050781 45.011719 26.480469 44.160156 26.03125 C 42.898438 25.378906 41.5 25.050781 40.019531 25.050781 L 40.011719 25.050781 C 37.109375 25.050781 34.648438 26.109375 32.730469 28.199219 C 30.808594 30.28125 29.828125 32.898438 29.828125 35.988281 C 29.828125 39.078125 30.789062 41.609375 32.671875 43.691406 C 34.570312 45.769531 36.96875 46.828125 39.808594 46.828125 C 41.351562 46.828125 42.808594 46.488281 44.128906 45.808594 C 45.019531 45.351562 45.789062 44.769531 46.429688 44.089844 L 46.429688 46.308594 L 49.710938 46.308594 L 49.710938 25.5 Z M 39.929688 28.378906 C 41.640625 28.378906 43.109375 29.101562 44.429688 30.570312 C 45.769531 32.058594 46.421875 33.761719 46.421875 35.761719 C 46.421875 37.898438 45.761719 39.738281 44.441406 41.25 C 43.121094 42.761719 41.628906 43.5 39.871094 43.5 C 38.109375 43.5 36.511719 42.800781 35.199219 41.371094 C 33.898438 39.949219 33.230469 38.179688 33.21875 36.089844 C 33.21875 33.871094 33.871094 32.058594 35.199219 30.578125 C 36.511719 29.101562 38.058594 28.378906 39.921875 28.378906 Z M 73.378906 19.371094 L 73.261719 19.050781 L 69.679688 19.050781 L 69.558594 19.378906 L 60.050781 45.660156 L 59.808594 46.300781 L 63.390625 46.300781 L 63.5 45.988281 L 66.320312 38.058594 L 76.558594 38.058594 L 79.390625 45.988281 L 79.5 46.308594 L 83.101562 46.308594 L 82.871094 45.660156 L 73.371094 19.371094 Z M 75.390625 34.738281 L 67.511719 34.738281 L 71.410156 23.46875 L 75.378906 34.738281 Z M 93.589844 25.671875 L 93.589844 25.179688 L 93.089844 25.199219 C 92.101562 25.230469 91.210938 25.46875 90.449219 25.921875 C 90.039062 26.160156 89.648438 26.488281 89.269531 26.878906 L 89.269531 25.488281 L 86.058594 25.488281 L 86.058594 46.308594 L 89.449219 46.308594 L 89.449219 33.851562 C 89.449219 32.140625 89.738281 30.910156 90.308594 30.191406 C 90.859375 29.488281 91.828125 29.070312 93.171875 28.929688 L 93.609375 28.890625 L 93.609375 28.449219 Z M 115.289062 25.488281 L 112.019531 25.488281 L 112.019531 27.75 C 111.371094 27.050781 110.605469 26.46875 109.761719 26.03125 C 108.5 25.378906 107.101562 25.050781 105.609375 25.050781 C 102.710938 25.050781 100.25 26.109375 98.320312 28.199219 C 96.398438 30.28125 95.421875 32.910156 95.429688 35.988281 C 95.429688 39.019531 96.378906 41.609375 98.269531 43.679688 C 100.160156 45.769531 102.570312 46.820312 105.421875 46.820312 C 106.914062 46.832031 108.390625 46.480469 109.71875 45.800781 C 110.609375 45.339844 111.378906 44.761719 112.03125 44.070312 L 112.03125 46.300781 L 115.308594 46.300781 L 115.308594 25.488281 Z M 105.460938 43.738281 L 105.460938 43.5 C 103.628906 43.5 102.109375 42.800781 100.789062 41.371094 C 99.46875 39.929688 98.828125 38.199219 98.828125 36.089844 C 98.828125 33.980469 99.488281 32.039062 100.800781 30.570312 C 102.101562 29.109375 103.679688 28.378906 105.519531 28.378906 C 107.230469 28.378906 108.699219 29.101562 110.03125 30.570312 C 111.351562 32.050781 112.011719 33.800781 112.011719 35.761719 C 112.011719 37.890625 111.351562 39.738281 110.03125 41.25 C 108.71875 42.761719 107.21875 43.5 105.449219 43.5 L 105.449219 43.738281 Z M 136.171875 25.488281 L 132.820312 25.488281 L 132.820312 35.730469 L 132.648438 39.320312 C 132.539062 39.960938 132.351562 40.53125 132.101562 41 C 131.660156 41.789062 131.058594 42.398438 130.320312 42.828125 C 129.601562 43.238281 128.730469 43.449219 127.75 43.449219 C 126.039062 43.449219 124.808594 42.949219 124.089844 41.960938 C 123.339844 40.921875 122.949219 39.078125 122.949219 36.5 L 122.949219 25.480469 L 119.628906 25.480469 L 119.628906 36.320312 C 119.628906 39.988281 120.269531 42.679688 121.511719 44.308594 C 122.769531 45.980469 124.859375 46.820312 127.679688 46.820312 C 129.011719 46.820312 130.160156 46.601562 131.101562 46.140625 C 131.710938 45.851562 132.289062 45.441406 132.820312 44.929688 L 132.820312 46.300781 L 136.171875 46.300781 Z M 149.449219 28.308594 C 150.820312 28.308594 151.949219 28.621094 152.929688 29.269531 C 153.910156 29.910156 154.75 30.929688 155.441406 32.300781 L 155.578125 32.558594 L 159.191406 32.558594 L 158.960938 31.910156 C 158.179688 29.730469 156.960938 28 155.351562 26.789062 C 153.738281 25.558594 151.851562 24.941406 149.738281 24.941406 C 146.929688 24.941406 144.511719 26.019531 142.550781 28.160156 C 140.601562 30.28125 139.621094 32.910156 139.621094 35.949219 C 139.621094 38.941406 140.589844 41.519531 142.519531 43.640625 C 144.449219 45.78125 146.859375 46.871094 149.660156 46.871094 C 151.859375 46.871094 153.789062 46.238281 155.410156 45 C 157.019531 43.769531 158.210938 42.011719 158.960938 39.769531 L 159.160156 39.128906 L 155.550781 39.128906 L 155.429688 39.429688 C 154.878906 40.730469 154.089844 41.71875 153.078125 42.398438 C 152.070312 43.109375 150.878906 43.460938 149.558594 43.460938 C 147.710938 43.460938 146.210938 42.761719 144.949219 41.320312 C 143.699219 39.890625 143.058594 38.058594 143.058594 35.898438 C 143.058594 33.738281 143.671875 31.929688 144.941406 30.460938 C 146.191406 29.011719 147.660156 28.300781 149.441406 28.300781 Z M 182.039062 25.488281 L 178.761719 25.488281 L 178.761719 27.761719 C 178.109375 27.058594 177.351562 26.480469 176.5 26.03125 C 175.25 25.378906 173.859375 25.050781 172.371094 25.050781 L 172.339844 25.050781 C 169.441406 25.050781 166.988281 26.109375 165.058594 28.199219 C 163.140625 30.28125 162.160156 32.890625 162.160156 35.980469 C 162.160156 39.070312 163.109375 41.601562 165 43.679688 C 166.890625 45.769531 169.300781 46.820312 172.148438 46.828125 C 173.691406 46.828125 175.140625 46.488281 176.460938 45.808594 C 177.351562 45.351562 178.121094 44.769531 178.769531 44.078125 L 178.769531 46.308594 L 182.050781 46.308594 L 182.050781 25.488281 Z M 172.269531 28.371094 C 173.980469 28.371094 175.449219 29.101562 176.78125 30.570312 C 178.109375 32.070312 178.761719 33.769531 178.761719 35.761719 C 178.761719 37.878906 178.101562 39.730469 176.78125 41.25 C 175.460938 42.761719 173.96875 43.5 172.21875 43.5 C 170.390625 43.5 168.859375 42.800781 167.550781 41.371094 C 166.238281 39.941406 165.578125 38.160156 165.578125 36.089844 C 165.578125 33.910156 166.238281 32.050781 167.558594 30.570312 C 168.871094 29.101562 170.421875 28.378906 172.28125 28.371094 Z M 201.640625 28.460938 C 200.992188 27.378906 200.046875 26.507812 198.921875 25.949219 C 197.808594 25.378906 196.511719 25.089844 195.070312 25.089844 C 193.769531 25.089844 192.589844 25.328125 191.578125 25.78125 C 190.902344 26.09375 190.273438 26.507812 189.71875 27.011719 L 189.71875 25.488281 L 186.441406 25.488281 L 186.441406 46.320312 L 189.730469 46.320312 L 189.730469 36.171875 L 189.890625 32.628906 C 190 31.988281 190.191406 31.421875 190.460938 30.929688 C 190.878906 30.148438 191.460938 29.550781 192.199219 29.128906 C 192.949219 28.710938 193.789062 28.5 194.800781 28.5 C 196.511719 28.5 197.699219 28.960938 198.449219 29.898438 C 199.210938 30.859375 199.601562 32.480469 199.601562 34.710938 L 199.601562 46.308594 L 202.910156 46.308594 L 202.910156 35.449219 C 202.910156 33.570312 202.820312 32.109375 202.628906 31.121094 C 202.429688 30.109375 202.089844 29.210938 201.640625 28.460938 Z M 226.238281 25.980469 L 226.238281 25.5 L 222.960938 25.5 L 222.960938 27.761719 C 222.3125 27.058594 221.550781 26.476562 220.710938 26.03125 C 219.449219 25.378906 218.050781 25.050781 216.550781 25.050781 C 213.640625 25.050781 211.191406 26.109375 209.261719 28.199219 C 207.328125 30.28125 206.359375 32.898438 206.359375 35.980469 C 206.359375 39.058594 207.320312 41.609375 209.199219 43.679688 C 211.101562 45.761719 213.5 46.820312 216.339844 46.820312 C 217.878906 46.820312 219.328125 46.480469 220.660156 45.800781 C 221.550781 45.351562 222.308594 44.769531 222.960938 44.078125 L 222.960938 46.308594 L 226.238281 46.308594 Z M 216.46875 28.378906 C 218.160156 28.378906 219.671875 29.121094 220.96875 30.570312 C 222.308594 32.058594 222.960938 33.761719 222.96875 35.761719 C 222.96875 37.890625 222.308594 39.738281 220.988281 41.25 C 219.691406 42.738281 218.160156 43.5 216.421875 43.5 C 214.589844 43.5 213.058594 42.800781 211.738281 41.371094 C 210.441406 39.941406 209.769531 38.171875 209.78125 36.089844 C 209.78125 33.898438 210.441406 32.050781 211.761719 30.570312 C 213.050781 29.121094 214.628906 28.378906 216.46875 28.378906 Z M 62.878906 61.738281 L 9.070312 61.738281 C 4.617188 61.734375 1.003906 58.125 1 53.671875 L 1 13.5 C 1.003906 9.046875 4.617188 5.433594 9.070312 5.429688 L 233.261719 5.429688 C 237.714844 5.433594 241.324219 9.046875 241.328125 13.5 L 241.328125 53.679688 C 241.324219 58.132812 237.714844 61.746094 233.261719 61.75 L 181.839844 61.75 C 180.980469 61.75 180.28125 61.050781 180.28125 60.191406 C 180.28125 59.328125 180.980469 58.628906 181.839844 58.628906 L 233.261719 58.628906 C 235.988281 58.628906 238.199219 56.410156 238.199219 53.691406 L 238.199219 13.5 C 238.199219 10.769531 235.980469 8.558594 233.261719 8.558594 L 9.070312 8.558594 C 6.339844 8.558594 4.128906 10.78125 4.128906 13.5 L 4.128906 53.671875 C 4.128906 56.398438 6.351562 58.609375 9.070312 58.609375 L 62.878906 58.609375 C 63.738281 58.609375 64.441406 59.308594 64.441406 60.171875 C 64.441406 61.03125 63.738281 61.730469 62.878906 61.730469 Z M 242.761719 8.550781 C 242.761719 8.121094 242.839844 7.71875 243.011719 7.339844 C 243.171875 6.960938 243.398438 6.628906 243.679688 6.351562 C 243.960938 6.070312 244.289062 5.839844 244.671875 5.679688 C 245.050781 5.515625 245.464844 5.429688 245.878906 5.429688 C 246.308594 5.429688 246.710938 5.511719 247.089844 5.679688 C 247.46875 5.851562 247.800781 6.070312 248.078125 6.351562 C 248.359375 6.628906 248.589844 6.960938 248.75 7.339844 C 248.914062 7.722656 249 8.132812 249 8.550781 C 249 8.980469 248.921875 9.378906 248.75 9.761719 C 248.578125 10.140625 248.359375 10.46875 248.078125 10.75 C 247.800781 11.03125 247.46875 11.261719 247.089844 11.421875 C 246.707031 11.585938 246.296875 11.667969 245.878906 11.671875 C 245.449219 11.671875 245.050781 11.589844 244.671875 11.421875 C 244.289062 11.261719 243.960938 11.03125 243.679688 10.75 C 243.398438 10.46875 243.171875 10.140625 243.011719 9.761719 C 242.839844 9.378906 242.761719 8.980469 242.761719 8.550781 Z M 243.308594 8.550781 C 243.308594 8.898438 243.378906 9.238281 243.511719 9.550781 C 243.636719 9.855469 243.824219 10.136719 244.058594 10.371094 C 244.289062 10.601562 244.558594 10.789062 244.878906 10.921875 C 245.191406 11.050781 245.53125 11.121094 245.878906 11.121094 C 246.230469 11.121094 246.570312 11.050781 246.878906 10.921875 C 247.1875 10.792969 247.464844 10.605469 247.699219 10.371094 C 247.929688 10.140625 248.121094 9.871094 248.25 9.550781 C 248.378906 9.238281 248.449219 8.898438 248.449219 8.550781 C 248.449219 8.199219 248.378906 7.859375 248.25 7.550781 C 248.121094 7.242188 247.933594 6.964844 247.699219 6.730469 C 247.46875 6.5 247.199219 6.308594 246.878906 6.179688 C 246.570312 6.050781 246.230469 5.980469 245.878906 5.980469 C 245.53125 5.980469 245.191406 6.050781 244.878906 6.179688 C 244.574219 6.308594 244.296875 6.496094 244.058594 6.730469 C 243.828125 6.960938 243.640625 7.230469 243.511719 7.550781 C 243.378906 7.859375 243.308594 8.199219 243.308594 8.550781 Z M 244.640625 6.828125 L 245.949219 6.828125 C 246.359375 6.828125 246.660156 6.921875 246.851562 7.089844 C 247.039062 7.269531 247.140625 7.519531 247.140625 7.851562 C 247.140625 8.148438 247.058594 8.371094 246.910156 8.519531 C 246.761719 8.671875 246.570312 8.761719 246.328125 8.78125 L 247.210938 10.210938 L 246.558594 10.210938 L 245.71875 8.820312 L 245.269531 8.820312 L 245.269531 10.210938 L 244.648438 10.210938 L 244.648438 6.820312 Z M 245.261719 8.300781 L 245.710938 8.300781 L 246 8.289062 C 246.089844 8.28125 246.175781 8.261719 246.261719 8.230469 C 246.335938 8.199219 246.398438 8.152344 246.449219 8.089844 C 246.5 8.03125 246.519531 7.941406 246.519531 7.828125 C 246.519531 7.71875 246.5 7.628906 246.449219 7.570312 C 246.398438 7.507812 246.335938 7.457031 246.261719 7.429688 C 246.175781 7.398438 246.089844 7.378906 246 7.371094 L 245.261719 7.371094 L 245.261719 8.320312 Z M 245.261719 8.300781 "/>
</g>
</svg>
